<!DOCTYPE svg PUBLIC "-//W3C//DTD SVG 1.1//EN" "http://www.w3.org/Graphics/SVG/1.1/DTD/svg11.dtd">
<!-- Uploaded to: SVG Repo, www.svgrepo.com, Transformed by: SVG Repo Mixer Tools -->
<svg width="800px" height="800px" viewBox="-2.4 -2.4 28.80 28.80" fill="none" xmlns="http://www.w3.org/2000/svg" transform="rotate(0)">
<g id="SVGRepo_bgCarrier" stroke-width="0">
<path transform="translate(-2.4, -2.4), scale(0.8999999999999999)" d="M16,30.579528152942657C18.06298781501572,30.49487133995038,18.941082741137993,27.67784580451042,20.791360954318012,26.761572900447057C22.547705559285884,25.89181668742648,24.95305265616995,26.67520598232694,26.44668992757692,25.406241860315767C27.919477358950836,24.154991342174895,27.814186690608718,21.85584760237326,28.628541837701704,20.103261977770586C29.545114907216078,18.130691667061395,31.453562792767137,16.53421135863874,31.57818962709352,14.362666292420645C31.70288518240002,12.189923805870608,30.924828843252406,9.771741115235681,29.304883932649545,8.318421679948061C27.6300189979809,6.815831224492497,24.713995431598136,7.833538655704725,22.867390050820624,6.54784849322688C21.072979223345293,5.298498538794613,21.268059092171843,1.7306671365154784,19.13746181644899,1.2394026709951511C17.02528632084337,0.7523858247064572,15.669592784874983,4.027906706185324,13.533421369716624,4.395659908572689C11.276303768938114,4.784234636219089,8.88639998140612,2.3793988361510965,6.8168388690951325,3.3604630466489223C4.880245213856896,4.27849475594686,4.824083743114719,7.076233035210426,3.8507979992006973,8.985654954399376C2.920380216897878,10.810977187506197,1.2844706331030358,12.39566595290453,1.1686942478433107,14.441166950928132C1.0531215284381001,16.483069644273808,2.5881098716337174,18.207367949807445,3.2187270302077895,20.15288733081474C3.849768714906758,22.099716418975575,3.387262844292522,24.61824427403128,4.910501159263365,25.985029605435464C6.473726925563376,27.387695246164714,9.089968082502276,26.35822744972914,11.030300428350284,27.162127993181265C12.908151515732703,27.94014187977095,13.969068063520405,30.662869520203856,16,30.579528152942657" fill="#FFFFCC" strokewidth="0"/>
</g>
<g id="SVGRepo_tracerCarrier" stroke-linecap="round" stroke-linejoin="round"/>
<g id="SVGRepo_iconCarrier"> <path d="M3 4H8M3 11H9.76389M14.2361 11H21M21 7.2V16.8C21 17.9201 21 18.4802 20.782 18.908C20.5903 19.2843 20.2843 19.5903 19.908 19.782C19.4802 20 18.9201 20 17.8 20H6.2C5.0799 20 4.51984 20 4.09202 19.782C3.71569 19.5903 3.40973 19.2843 3.21799 18.908C3 18.4802 3 17.9201 3 16.8V10.2C3 9.0799 3 8.51984 3.21799 8.09202C3.40973 7.71569 3.71569 7.40973 4.09202 7.21799C4.51984 7 5.0799 7 6.2 7H7.67452C8.1637 7 8.40829 7 8.63846 6.94474C8.84254 6.89575 9.03763 6.81494 9.21657 6.70528C9.4184 6.5816 9.59135 6.40865 9.93726 6.06274L11.0627 4.93726C11.4086 4.59136 11.5816 4.4184 11.7834 4.29472C11.9624 4.18506 12.1575 4.10425 12.3615 4.05526C12.5917 4 12.8363 4 13.3255 4H17.8C18.9201 4 19.4802 4 19.908 4.21799C20.2843 4.40973 20.5903 4.71569 20.782 5.09202C21 5.51984 21 6.0799 21 7.2ZM15 13C15 14.6569 13.6569 16 12 16C10.3431 16 9 14.6569 9 13C9 11.3431 10.3431 10 12 10C13.6569 10 15 11.3431 15 13Z" stroke="#000000" stroke-width="0.9600000000000002" stroke-linecap="round" stroke-linejoin="round"/> </g>
</svg>